<svg id="Layer_1" data-name="Layer 1" xmlns="http://www.w3.org/2000/svg" viewBox="0 0 632 356"><defs><style>.cls-1{opacity:0.1;}.cls-2{fill:#fff;}</style></defs><rect class="cls-1" width="632" height="356"/><path class="cls-2" d="M380.57,49.51a7.6,7.6,0,0,0-1.56.21L189.64,100.57a7.72,7.72,0,0,0-5.4,9.26l50.9,189.6a13.12,13.12,0,0,0,9.25,7.08h196A7.62,7.62,0,0,0,448,299V102.65a7.61,7.61,0,0,0-7.59-7.49H399l-10.7-40a7.48,7.48,0,0,0-7.69-5.61Zm.31,5.82a1.74,1.74,0,0,1,1.66,1.35l10.29,38.48h-10.5l-5.71-21.11a6.65,6.65,0,0,0-7-4.89c-.52,0-1,.11-1.25.11l-96.5,25.89H244.38a7.52,7.52,0,0,0-7.48,7.49v1.88l-28.25,7.59a6.81,6.81,0,0,0-4.78,8.32l33,123.46v39.52L190,108.27a1.63,1.63,0,0,1,1.25-2L380.57,55.44c.11,0,.21-.11.31-.11Zm-10.8,19.55a1,1,0,0,1,.94.73l5.19,19.55H294.56L369.87,75c.32-.11.32-.11.21-.11ZM244.39,101H379.74a.7.7,0,0,0,.63,0h60a1.58,1.58,0,0,1,1.66,1.66V299a1.58,1.58,0,0,1-1.66,1.66h-196a1.71,1.71,0,0,1-1.25-.52s.1-.1,0-.1V300c-.21-.11-.21-.31-.31-.53a.75.75,0,0,1-.11-.41v-54.5a2.41,2.41,0,0,0,0-1.25V107.44a2,2,0,0,0,0-1.15v-3.64a1.65,1.65,0,0,1,1.67-1.66Zm-7.49,9.67V221.43L209.48,118.88a.74.74,0,0,1,.62-1l26.8-7.18Zm22.75.52A7,7,0,0,0,252.9,118v85.19a3.54,3.54,0,0,0,0,1.45v49.2a6.89,6.89,0,0,0,6.75,6.76H425a6.82,6.82,0,0,0,6.76-6.76V118.05a6.9,6.9,0,0,0-6.76-6.86H259.65Zm0,5.93H425a.88.88,0,0,1,.94.93v83.32l-24.52-20.29a3,3,0,0,0-3.32-.21l-35.22,20.29L325,163.08a3.1,3.1,0,0,0-2.5-.83,2,2,0,0,0-1,.31l-62.75,36.3V118.05a.93.93,0,0,1,.93-.94ZM375.9,136.35a18.36,18.36,0,1,0,18.39,18.31,18.35,18.35,0,0,0-18.39-18.31Zm0,5.83a12.48,12.48,0,0,1,0,25,12.48,12.48,0,0,1,0-25ZM322.3,168.8l38,38.07a3.16,3.16,0,0,0,3.63.52l35.21-20.49L426,209v44.93a.87.87,0,0,1-.94.93H259.65a.92.92,0,0,1-.93-.93V205.62L322.3,168.8Z"/></svg>